<svg width="243" height="35" viewBox="0 0 243 35" fill="none" xmlns="http://www.w3.org/2000/svg">
<circle cx="17.5" cy="17.5" r="17.5" fill="#44426C"/>
<circle cx="30.5" cy="17.5" r="17.5" fill="url(#paint0_linear_702_6508)"/>
<path d="M61.68 25.5V8.34H65.52V22.38H78.072V25.5H61.68ZM87.8929 25.62C86.1489 25.62 84.7729 25.396 83.7649 24.948C82.7569 24.484 82.0369 23.788 81.6049 22.86C81.1729 21.932 80.9569 20.764 80.9569 19.356V8.34H84.7969V19.356C84.7969 20.572 85.0769 21.404 85.6369 21.852C86.2129 22.284 87.1809 22.5 88.5409 22.5H93.1729C94.5329 22.5 95.4929 22.284 96.0529 21.852C96.6289 21.404 96.9169 20.572 96.9169 19.356V8.34H100.757V19.356C100.757 20.764 100.541 21.932 100.109 22.86C99.6769 23.788 98.9569 24.484 97.9489 24.948C96.9409 25.396 95.5649 25.62 93.8209 25.62H87.8929ZM104.593 25.5V8.34H108.481L120.625 20.676V8.34H124.465V25.5H120.577L108.433 13.14V25.5H104.593ZM126.86 25.5L134.588 8.34H140.516L148.244 25.5H144.068L142.436 21.876H132.668L131.036 25.5H126.86ZM134.06 18.756H141.044L137.708 11.34H137.396L134.06 18.756ZM150.647 25.5V8.34H165.023C166.799 8.34 168.175 8.788 169.151 9.684C170.143 10.58 170.639 11.94 170.639 13.764C170.639 15.316 170.279 16.532 169.559 17.412C168.839 18.292 167.815 18.844 166.487 19.068L170.447 25.5H166.079L162.407 19.188H154.487V25.5H150.647ZM164.567 11.46H154.487V16.044L164.567 16.068C165.271 16.068 165.807 15.892 166.175 15.54C166.559 15.188 166.751 14.596 166.751 13.764C166.751 12.916 166.559 12.324 166.175 11.988C165.807 11.636 165.271 11.46 164.567 11.46ZM182.872 25.5V8.34H197.248C199.024 8.34 200.4 8.788 201.376 9.684C202.368 10.58 202.864 11.94 202.864 13.764C202.864 15.588 202.368 16.948 201.376 17.844C200.4 18.74 199.024 19.188 197.248 19.188H186.712V25.5H182.872ZM196.792 11.46H186.712V16.044L196.792 16.068C197.496 16.068 198.032 15.892 198.4 15.54C198.784 15.188 198.976 14.596 198.976 13.764C198.976 12.916 198.784 12.324 198.4 11.988C198.032 11.636 197.496 11.46 196.792 11.46ZM202.139 25.5L209.867 8.34H215.795L223.523 25.5H219.347L217.715 21.876H207.947L206.315 25.5H202.139ZM209.339 18.756H216.323L212.987 11.34H212.675L209.339 18.756ZM229.381 25.5V19.38L220.285 8.34H225.037L231.301 16.116L237.541 8.34H242.293L233.245 19.356V25.5H229.381Z" fill="black"/>
<defs>
<linearGradient id="paint0_linear_702_6508" x1="13" y1="0" x2="52.2527" y2="5.69653" gradientUnits="userSpaceOnUse">
<stop stop-color="#439DFE"/>
<stop offset="1" stop-color="#F687FF"/>
</linearGradient>
</defs>
</svg>
