<svg width="192" height="35" viewBox="0 0 192 35" fill="none" xmlns="http://www.w3.org/2000/svg">
<circle cx="17.5" cy="17.5" r="17.5" fill="#44426C"/>
<circle cx="30.5" cy="17.5" r="17.5" fill="url(#paint0_linear_754_51)"/>
<path d="M59.704 26.5V10.492H63.592V23.452H70.552V26.5H59.704ZM80.3845 27.004C77.9205 27.004 76.0725 26.484 74.8405 25.444C73.6245 24.388 73.0165 22.748 73.0165 20.524V10.492H77.0725V20.356C77.0725 21.588 77.3205 22.5 77.8165 23.092C78.3125 23.684 79.1045 23.98 80.1925 23.98C81.1845 23.98 81.9525 23.684 82.4965 23.092C83.0565 22.5 83.3365 21.588 83.3365 20.356V10.492H87.0325V20.524C87.0325 22.012 86.7445 23.236 86.1685 24.196C85.6085 25.14 84.8325 25.844 83.8405 26.308C82.8485 26.772 81.6965 27.004 80.3845 27.004ZM90.4306 26.5V10.492H93.7426L101.975 21.58L100.823 23.98V10.492H104.399V26.5H101.471L93.0946 15.556L94.0066 13.804V26.5H90.4306ZM106.406 26.5L112.454 10.492H116.702L122.366 26.5H118.382L113.27 11.404L115.166 11.236L110.078 26.5H106.406ZM109.814 23.044L110.606 20.188H117.878L118.238 23.044H109.814ZM124.392 26.5V10.492H132.192C134 10.492 135.416 10.916 136.44 11.764C137.464 12.596 137.976 13.868 137.976 15.58C137.976 16.284 137.832 16.98 137.544 17.668C137.256 18.34 136.832 18.924 136.272 19.42C135.712 19.9 135.008 20.212 134.16 20.356L133.92 19.036L138.792 26.5H133.848L129.84 19.516L131.568 20.98H128.28V26.5H124.392ZM128.28 18.124H131.544C132.232 18.124 132.776 17.94 133.176 17.572C133.576 17.204 133.776 16.596 133.776 15.748C133.776 15.012 133.592 14.452 133.224 14.068C132.872 13.684 132.368 13.492 131.712 13.492H128.28V18.124ZM151.928 21.244V26.5H148.04V10.492H155.24C157.112 10.492 158.584 10.916 159.656 11.764C160.728 12.612 161.264 13.924 161.264 15.7C161.264 17.476 160.728 18.844 159.656 19.804C158.584 20.764 157.112 21.244 155.24 21.244H151.928ZM151.928 18.244H154.76C155.176 18.244 155.528 18.188 155.816 18.076C156.12 17.964 156.36 17.804 156.536 17.596C156.712 17.388 156.84 17.148 156.92 16.876C157.016 16.588 157.064 16.284 157.064 15.964C157.064 15.58 157.016 15.244 156.92 14.956C156.84 14.668 156.712 14.412 156.536 14.188C156.36 13.964 156.12 13.796 155.816 13.684C155.528 13.572 155.176 13.516 154.76 13.516H151.928V18.244ZM160.781 26.5L166.829 10.492H171.077L176.741 26.5H172.757L167.645 11.404L169.541 11.236L164.453 26.5H160.781ZM164.189 23.044L164.981 20.188H172.253L172.613 23.044H164.189ZM181.084 26.5V19.588L175.012 10.492H179.788L184.348 18.148H182.548L186.7 10.492H190.564L184.42 20.548L184.972 18.484V26.5H181.084Z" fill="black"/>
<defs>
<linearGradient id="paint0_linear_754_51" x1="13" y1="0" x2="52.2527" y2="5.69653" gradientUnits="userSpaceOnUse">
<stop stop-color="#439DFE"/>
<stop offset="1" stop-color="#F687FF"/>
</linearGradient>
</defs>
</svg>
