<svg width="700" height="677" viewBox="0 0 590 677" fill="none" xmlns="http://www.w3.org/2000/svg">
<g opacity="0.8" filter="url(#filter0_f_721_20418)">
<path d="M-70.4231 271.534L115.535 235.666L215.377 303.313L365.693 274.319L405.881 211.849L529.853 187.937" stroke="#EEEEFF" stroke-width="2" stroke-linecap="round" stroke-linejoin="round"/>
<path d="M47.4042 428.251L169.826 404.638L338 155.74L623.91 100.592" stroke="#EEEEFF" stroke-width="2" stroke-linecap="round" stroke-linejoin="round"/>
<ellipse cx="141.919" cy="130.797" rx="37.8771" ry="37.9257" transform="rotate(-10.9175 141.919 130.797)" fill="url(#paint0_linear_721_20418)"/>
<path d="M104.282 252.321L161.6 291.155" stroke="#EEEEFF" stroke-width="2" stroke-linecap="round" stroke-linejoin="round"/>
<path d="M167.146 294.914L181.938 304.935" stroke="#EEEEFF" stroke-width="2" stroke-linecap="round" stroke-linejoin="round"/>
<path d="M428.292 357.198L485.609 396.033" stroke="#EEEEFF" stroke-width="2" stroke-linecap="round" stroke-linejoin="round"/>
<path d="M491.156 399.791L505.947 409.813" stroke="#EEEEFF" stroke-width="2" stroke-linecap="round" stroke-linejoin="round"/>
<path d="M422.921 229.356L560.065 202.903" stroke="#EEEEFF" stroke-width="2" stroke-linecap="round" stroke-linejoin="round"/>
<path d="M567.038 201.559L584.57 198.177" stroke="#EEEEFF" stroke-width="2" stroke-linecap="round" stroke-linejoin="round"/>
<path d="M3.14795 415.464L82.18 400.22" stroke="#EEEEFF" stroke-width="2" stroke-linecap="round" stroke-linejoin="round"/>
<path d="M89.1533 398.875L106.686 395.493" stroke="#EEEEFF" stroke-width="2" stroke-linecap="round" stroke-linejoin="round"/>
<path d="M113.948 394.092L150.364 387.068" stroke="#EEEEFF" stroke-width="2" stroke-linecap="round" stroke-linejoin="round"/>
<ellipse cx="473.292" cy="198.847" rx="4.73464" ry="4.74071" transform="rotate(-10.9175 473.292 198.847)" fill="#EEEEFF"/>
<path d="M454.397 200.882L472.394 194.192L474.19 203.502L454.995 203.985L454.397 200.882Z" fill="url(#paint1_linear_721_20418)"/>
<ellipse cx="573.546" cy="110.307" rx="4.73464" ry="4.74071" transform="rotate(-10.9175 573.546 110.307)" fill="#EEEEFF"/>
<path d="M554.652 112.342L572.649 105.651L574.445 114.961L555.25 115.445L554.652 112.342Z" fill="url(#paint2_linear_721_20418)"/>
<path d="M2.45103 532.68L177.561 498.903L271.963 359.188L425.379 329.596L502.11 381.584L631.505 356.626" stroke="#EEEEFF" stroke-width="2" stroke-linecap="round" stroke-linejoin="round"/>
<ellipse cx="141.918" cy="505.778" rx="4.73464" ry="4.74071" transform="rotate(-10.9175 141.918 505.778)" fill="#EEEEFF"/>
<path d="M123.023 507.813L141.021 501.123L142.816 510.433L123.622 510.917L123.023 507.813Z" fill="url(#paint3_linear_721_20418)"/>
<path d="M141.422 281.61C141.422 281.61 125.87 341.062 168.085 423.187C168.399 423.8 168.752 424.392 169.078 424.989C199.514 479.067 400.927 423.801 432.535 397.329C432.535 397.329 454.484 302.968 403.355 227.942C403.369 227.939 247.673 191.843 141.422 281.61Z" fill="url(#paint4_linear_721_20418)"/>
<g style="mix-blend-mode:soft-light">
<mask id="mask0_721_20418" style="mask-type:alpha" maskUnits="userSpaceOnUse" x="138" y="220" width="300" height="228">
<path d="M141.422 281.61C141.422 281.61 125.87 341.062 168.085 423.187C168.4 423.8 168.752 424.392 169.078 424.989C199.514 479.067 400.928 423.801 432.535 397.329C432.535 397.329 454.484 302.968 403.356 227.942C403.369 227.939 247.673 191.843 141.422 281.61Z" fill="#315EFB"/>
</mask>
<g mask="url(#mask0_721_20418)">
<g style="mix-blend-mode:soft-light">
<path d="M136.615 311.144C136.615 311.144 137.297 356.741 168.734 427.566C168.734 427.566 183.536 465.2 293.837 450.456C390.829 437.495 434.909 401.222 434.909 401.222C434.909 401.222 447.588 364.93 446.66 348.596C446.66 348.596 337.833 418.879 213.919 402.152C143.509 392.648 136.615 311.144 136.615 311.144Z" fill="url(#paint5_linear_721_20418)"/>
</g>
</g>
</g>
<path d="M437.183 341.312L437.309 335.316C437.309 335.316 413.889 344.661 391.751 347.117C369.613 349.573 362.14 343.284 357.034 334.488C357.034 334.488 360.142 355.684 390.745 352.851C421.752 349.996 437.183 341.312 437.183 341.312Z" fill="#66649E"/>
<path d="M441.574 334.779C441.574 334.779 444.681 314.52 434.165 286.258C434.165 286.258 413.452 279.314 379.557 289.054C345.662 298.793 347.531 323.977 357.612 340.962C368.761 359.707 413.916 347.543 441.574 334.779Z" fill="#44426C"/>
<circle cx="379.082" cy="322.088" r="18.6671" transform="rotate(-10.9175 379.082 322.088)" fill="white"/>
<path d="M395.666 318.889C397.433 328.048 391.44 336.905 382.281 338.672C373.122 340.438 364.266 334.446 362.499 325.287C362.499 325.287 371.901 327.094 381.9 317.923C393.439 307.341 395.666 318.889 395.666 318.889Z" fill="url(#paint6_linear_721_20418)"/>
<path fill-rule="evenodd" clip-rule="evenodd" d="M372.866 320.448C374.751 320.084 375.982 318.25 375.616 316.352C375.25 314.453 373.425 313.208 371.54 313.572C369.655 313.935 368.424 315.769 368.791 317.668C369.157 319.567 370.982 320.812 372.866 320.448Z" fill="#9C99CC"/>
<path fill-rule="evenodd" clip-rule="evenodd" d="M386.453 329.715C388.337 329.351 389.568 327.517 389.202 325.618C388.836 323.72 387.011 322.475 385.126 322.839C383.241 323.202 382.011 325.036 382.377 326.935C382.743 328.834 384.568 330.078 386.453 329.715Z" fill="#9C99CC"/>
<path fill-rule="evenodd" clip-rule="evenodd" d="M383.049 312.541C381.116 312.914 379.854 314.795 380.23 316.743C380.605 318.69 382.477 319.967 384.41 319.594C386.343 319.221 387.605 317.34 387.23 315.392C386.854 313.445 384.983 312.168 383.049 312.541Z" fill="#9C99CC"/>
<path fill-rule="evenodd" clip-rule="evenodd" d="M374.027 325.985C372.093 326.358 370.831 328.239 371.207 330.187C371.582 332.134 373.454 333.411 375.387 333.038C377.32 332.665 378.582 330.784 378.207 328.836C377.831 326.889 375.96 325.612 374.027 325.985Z" fill="#9C99CC"/>
<path d="M147.837 151.16C150.049 110.209 223.37 79.9055 259.754 69.8724C319.76 53.3256 322.434 92.1551 270.857 127.431C254.052 138.924 248.981 176.274 212.588 193.545C198.491 200.236 145.071 202.347 147.837 151.16Z" fill="url(#paint7_linear_721_20418)"/>
<circle cx="4.73768" cy="4.73768" r="4.73768" transform="matrix(0.827872 0.560917 -0.559855 0.82859 466.832 351.959)" fill="#EEEEFF"/>
<path d="M453.297 346.604L470.754 354.617L465.449 362.468L451.529 349.221L453.297 346.604Z" fill="url(#paint8_linear_721_20418)"/>
<path d="M-91.4991 473.712C-104.581 454.443 -88.8055 442.548 -79.2825 439.008C-28.0591 429.128 15.2894 453.114 42.6017 454.656C69.9141 456.198 105.194 447.691 156.984 464.09C208.774 480.489 222.756 501.627 252.525 520.571C282.294 539.516 300.281 520.724 335.484 516.487C370.686 512.251 387.59 534.528 344.349 562.447C301.107 590.367 275.051 576.665 238.429 582.878C201.806 589.091 146.298 558.086 121.974 534.686C97.6495 511.287 63.6982 494.001 23.8378 497.433C-16.0226 500.865 -75.1468 497.798 -91.4991 473.712Z" fill="url(#paint9_linear_721_20418)"/>
<path d="M356.75 497.941L463.44 545.177L317.093 604.275L356.75 497.941Z" fill="url(#paint10_linear_721_20418)"/>
<path fill-rule="evenodd" clip-rule="evenodd" d="M533.688 472.12C538.35 460.539 551.541 454.907 563.132 459.588C574.723 464.27 580.324 477.493 575.663 489.073C571.001 500.653 557.81 506.286 546.219 501.604C534.628 496.923 529.027 483.7 533.688 472.12ZM543.96 482.016L546.234 482.047L541.957 487.994L559.698 495.16L562.884 490.72L552.244 486.422L555.346 482.09L557.629 482.097L560.093 478.682L557.833 478.684L563.366 470.984L556.299 468.13L548.752 478.597L546.44 478.594L543.96 482.016L543.96 482.016Z" fill="#44426C"/>
<path d="M534.061 291.297C533.032 276.745 540.496 270.119 544.357 268.625C562.931 270.439 580.658 251.73 596.923 253.09C613.187 254.449 629.201 272.946 637.824 278.478C646.448 284.01 685.07 283.755 676.395 307.914C667.72 332.072 643.825 314.196 612.226 313.995C580.628 313.794 586.534 332.891 573.991 341.606C561.448 350.321 548.895 342.85 542.257 333.787C535.619 324.724 535.347 309.487 534.061 291.297Z" fill="url(#paint11_linear_721_20418)"/>
<path fill-rule="evenodd" clip-rule="evenodd" d="M146.503 605.101C130.157 593.678 126.148 571.155 137.549 554.794C148.951 538.433 171.446 534.431 187.792 545.853C204.139 557.276 208.148 579.8 196.746 596.16C185.345 612.521 162.849 616.524 146.503 605.101Z" fill="white"/>
<path fill-rule="evenodd" clip-rule="evenodd" d="M143.406 605.699C127.062 594.278 123.051 571.753 134.452 555.392C145.854 539.031 168.351 535.03 184.695 546.451C201.04 557.873 205.051 580.398 193.649 596.759C182.247 613.119 159.75 617.12 143.406 605.699ZM184.744 590.539L157.82 590.973L174.346 583.273L174.348 583.274L175.867 565.077L184.744 590.539ZM143.354 561.617L173.452 563.403L171.809 581.501L155.411 589.291L143.354 561.617Z" fill="#44426C"/>
<path fill-rule="evenodd" clip-rule="evenodd" d="M538.827 244.432C544.249 234.341 556.822 230.562 566.906 235.997C576.99 241.432 580.767 254.023 575.344 264.114C569.922 274.204 557.349 277.983 547.265 272.548C537.181 267.113 533.404 254.522 538.827 244.432Z" fill="white"/>
<path fill-rule="evenodd" clip-rule="evenodd" d="M535.429 243.478C540.847 233.395 553.424 229.608 563.508 235.043C573.592 240.478 577.365 253.077 571.946 263.16C566.528 273.243 553.951 277.03 543.867 271.595C533.783 266.16 530.011 253.561 535.429 243.478ZM546.819 266.096L544.78 250.742L550.269 259.676L550.268 259.677L560.742 259.345L546.819 266.096ZM560.552 240.54L561.536 257.854L551.111 258.109L545.58 249.255L560.552 240.54Z" fill="#44426C"/>
<path d="M501.236 256.222L513.633 253.831" stroke="#28BC00" stroke-width="2" stroke-linecap="round" stroke-linejoin="round"/>
<path d="M523 264.9L490.458 271.177" stroke="#28BC00" stroke-width="2" stroke-linecap="round" stroke-linejoin="round"/>
<path d="M46.8889 342.25L67.8092 338.215" stroke="#28BC00" stroke-width="2" stroke-linecap="round" stroke-linejoin="round"/>
<path d="M87.2501 347.34L54.7075 353.617" stroke="#28BC00" stroke-width="2" stroke-linecap="round" stroke-linejoin="round"/>
<path fill-rule="evenodd" clip-rule="evenodd" d="M-0.084153 209.608C-7.11584 201.594 -6.34313 189.35 1.67524 182.298C9.69362 175.247 21.9213 176.059 28.9529 184.073C35.9846 192.087 35.2119 204.331 27.1936 211.382C19.1752 218.434 6.94753 217.622 -0.084153 209.608ZM22.535 196.07L16.732 201.173C16.7485 200.216 16.7349 199.259 16.6912 198.302C16.6109 195.889 16.5152 193.477 16.4042 191.065C16.3957 190.868 16.3999 190.66 16.4048 190.45C16.4165 189.856 16.4285 189.245 16.1674 188.814C15.7038 188.028 15.061 187.343 14.4 186.639C14.1274 186.352 13.8597 186.06 13.5969 185.763L9.99583 188.93L7.78115 186.406L4.89504 188.944L7.16578 191.532L3.86171 194.438L6.57438 197.529L12.1398 192.635C12.1489 193.094 12.1527 193.525 12.1569 193.943C12.162 194.474 12.1673 194.985 12.1806 195.507C12.2612 197.92 12.3572 200.332 12.4685 202.744C12.4855 202.957 12.4856 203.186 12.4856 203.418C12.4848 203.979 12.4841 204.556 12.7348 204.969C13.1995 205.756 13.8438 206.443 14.4963 207.137C14.7589 207.417 15.0222 207.698 15.2762 207.987L18.8478 204.846L21.091 207.403L24.0959 204.761C23.689 204.353 23.2852 203.943 22.8845 203.529C22.489 203.124 22.0934 202.718 21.6769 202.303L25.2476 199.163L22.5346 196.071L22.535 196.07Z" fill="#44426C"/>
<path d="M37.4907 218.532L46.7354 224.796" stroke="#28BC00" stroke-width="2" stroke-linecap="round" stroke-linejoin="round"/>
<path d="M423.186 122.412C418.647 98.8759 434.036 76.0615 457.571 71.5218C481.107 66.9821 503.877 82.4361 508.417 105.972C512.957 129.508 497.568 152.322 474.032 156.862C450.496 161.402 427.726 145.948 423.186 122.412Z" fill="white"/>
<path fill-rule="evenodd" clip-rule="evenodd" d="M456.921 76.4746C435.097 80.6842 420.827 101.839 425.037 123.663C429.246 145.488 450.36 159.818 472.185 155.608C494.009 151.398 508.278 130.243 504.069 108.419C499.859 86.5951 478.745 72.265 456.921 76.4746ZM470.911 99.5414C476.659 100.361 481.139 102.387 481.364 107.72C481.535 111.623 479.789 113.866 477.124 115.048C481.339 116.306 483.878 118.991 483.046 124.658C482.013 131.694 476.647 133.307 469.101 133.331L468.702 140.761L464.227 140.519L464.622 133.189C463.462 133.127 462.275 133.053 461.049 132.961L460.655 140.326L456.186 140.083L456.582 132.64C456.164 132.614 455.743 132.587 455.319 132.56C454.682 132.518 454.038 132.476 453.387 132.44L447.564 132.125L448.74 126.824C448.74 126.824 452.047 127.054 451.992 127.001C453.259 127.067 453.643 126.175 453.753 125.608L454.383 113.863C454.493 113.868 454.6 113.874 454.704 113.88L454.856 113.888C454.672 113.853 454.509 113.838 454.384 113.831L454.833 105.447C454.71 104.529 454.177 103.443 452.364 103.345C452.422 103.287 449.115 103.171 449.115 103.171L449.37 98.3865L455.541 98.7228L455.541 98.7457C456.468 98.7953 457.42 98.8288 458.39 98.8614L458.786 91.5042L463.258 91.7465L462.871 98.9594C464.067 99.0002 465.27 99.0421 466.447 99.1056L466.83 91.9401L471.305 92.182L470.911 99.5414ZM474.251 123.297C473.98 128.401 465.979 127.856 462.318 127.607C461.988 127.584 461.694 127.564 461.444 127.551L461.973 117.689C462.278 117.706 462.649 117.717 463.069 117.73C466.828 117.844 474.531 118.079 474.251 123.297ZM462.952 113.223C466.005 113.439 472.667 113.91 472.916 109.271C473.17 104.527 466.75 104.349 463.614 104.263C463.262 104.253 462.95 104.245 462.695 104.231L462.216 113.175C462.426 113.186 462.674 113.204 462.952 113.223Z" fill="#44426C"/>
<path fill-rule="evenodd" clip-rule="evenodd" d="M-6.27612 340.134C-14.5654 350.899 -12.5584 366.364 -1.80875 374.662C8.94088 382.961 24.3876 380.972 32.6769 370.206C40.9662 359.441 38.9592 343.976 28.2095 335.677C17.4599 327.378 2.0132 329.368 -6.27612 340.134ZM9.44441 345.037C12.4068 343.085 15.2757 342.199 17.5333 344.552C19.1883 346.27 19.2946 348.005 18.5522 349.625C20.9897 348.495 23.2372 348.697 25.1449 351.63C27.5148 355.272 25.7096 358.183 22.2657 361.25L25.0842 364.816L22.9384 366.516L20.1578 362.998C19.6021 363.44 19.0288 363.886 18.4306 364.341L21.2251 367.874L19.0811 369.573L16.2559 366.002C16.0547 366.16 15.8514 366.317 15.6465 366.476L15.645 366.477L15.6441 366.478L15.6439 366.478C15.3359 366.717 15.0247 366.958 14.7129 367.205L11.9202 369.418L10.3167 366.513C10.3167 366.513 11.9237 365.28 11.877 365.277C12.4835 364.795 12.2988 364.231 12.1203 363.926L7.66425 358.291C7.71648 358.248 7.76815 358.208 7.81801 358.168L7.89072 358.111C7.7925 358.169 7.71228 358.228 7.65204 358.275L4.47064 354.253C4.04344 353.882 3.36083 353.601 2.49138 354.289C2.49461 354.239 0.933803 355.525 0.933803 355.525L-0.882149 353.23L2.07851 350.886L2.08745 350.896C2.53212 350.543 2.98156 350.173 3.43867 349.795L0.647793 346.265L2.79269 344.565L5.52923 348.026C6.09311 347.56 6.66096 347.092 7.22505 346.645L4.50606 343.207L6.65188 341.506L9.44441 345.037ZM20.5704 354.567C22.5078 357.015 18.6252 360.005 16.8487 361.373C16.6889 361.496 16.5461 361.606 16.4261 361.701L12.6847 356.969C12.8309 356.853 13.0052 356.708 13.2026 356.544L13.2027 356.544C14.9695 355.075 18.5904 352.063 20.5704 354.567ZM11.3278 354.528C12.8129 353.39 16.0522 350.908 14.2925 348.682C12.492 346.406 9.48169 348.924 8.01152 350.154C7.84614 350.293 7.70025 350.415 7.57777 350.512L10.9714 354.803C11.0724 354.723 11.1928 354.631 11.3278 354.528Z" fill="#44426C"/>
<path d="M185.247 530.413L204.627 501.729" stroke="#28BC00" stroke-width="2" stroke-linecap="round" stroke-linejoin="round"/>
<path d="M201.192 529.751L228.075 489.964" stroke="#28BC00" stroke-width="2" stroke-linecap="round" stroke-linejoin="round"/>
<path d="M417.214 183.109L431.593 161.828" stroke="#28BC00" stroke-width="2" stroke-linecap="round" stroke-linejoin="round"/>
<path d="M444.891 164.091L421.134 199.252" stroke="#28BC00" stroke-width="2" stroke-linecap="round" stroke-linejoin="round"/>
<path d="M39.4194 207.699L59.7577 221.479" stroke="#28BC00" stroke-width="2" stroke-linecap="round" stroke-linejoin="round"/>
<path d="M512.532 443.948L525.475 452.718" stroke="#28BC00" stroke-width="2" stroke-linecap="round" stroke-linejoin="round"/>
<path d="M491.638 443.955L523.07 465.252" stroke="#28BC00" stroke-width="2" stroke-linecap="round" stroke-linejoin="round"/>
<path d="M580.753 401.821L593.695 410.59" stroke="#28BC00" stroke-width="2" stroke-linecap="round" stroke-linejoin="round"/>
</g>
<defs>
<filter id="filter0_f_721_20418" x="-116.476" y="45.9395" width="814.131" height="586.268" filterUnits="userSpaceOnUse" color-interpolation-filters="sRGB">
<feFlood flood-opacity="0" result="BackgroundImageFix"/>
<feBlend mode="normal" in="SourceGraphic" in2="BackgroundImageFix" result="shape"/>
<feGaussianBlur stdDeviation="10" result="effect1_foregroundBlur_721_20418"/>
</filter>
<linearGradient id="paint0_linear_721_20418" x1="104.042" y1="92.8713" x2="189.005" y2="105.186" gradientUnits="userSpaceOnUse">
<stop stop-color="#439DFE"/>
<stop offset="1" stop-color="#F687FF"/>
</linearGradient>
<linearGradient id="paint1_linear_721_20418" x1="464.769" y1="200.491" x2="449.272" y2="203.48" gradientUnits="userSpaceOnUse">
<stop stop-color="#EEEEFF"/>
<stop offset="1" stop-color="#EEEEFF" stop-opacity="0"/>
</linearGradient>
<linearGradient id="paint2_linear_721_20418" x1="565.024" y1="111.95" x2="549.527" y2="114.939" gradientUnits="userSpaceOnUse">
<stop stop-color="#EEEEFF"/>
<stop offset="1" stop-color="#EEEEFF" stop-opacity="0"/>
</linearGradient>
<linearGradient id="paint3_linear_721_20418" x1="133.395" y1="507.422" x2="117.899" y2="510.411" gradientUnits="userSpaceOnUse">
<stop stop-color="#EEEEFF"/>
<stop offset="1" stop-color="#EEEEFF" stop-opacity="0"/>
</linearGradient>
<linearGradient id="paint4_linear_721_20418" x1="123.776" y1="253.389" x2="454.71" y2="254.376" gradientUnits="userSpaceOnUse">
<stop stop-color="#439DFE"/>
<stop offset="1" stop-color="#F687FF"/>
</linearGradient>
<linearGradient id="paint5_linear_721_20418" x1="466.697" y1="386.843" x2="70.9699" y2="418.391" gradientUnits="userSpaceOnUse">
<stop/>
<stop offset="1" stop-opacity="0"/>
</linearGradient>
<linearGradient id="paint6_linear_721_20418" x1="399.43" y1="331.013" x2="354.864" y2="335.539" gradientUnits="userSpaceOnUse">
<stop stop-color="#DADAFF"/>
<stop offset="1" stop-color="#EEEEFF" stop-opacity="0"/>
</linearGradient>
<linearGradient id="paint7_linear_721_20418" x1="328.25" y1="150.907" x2="101.392" y2="173.038" gradientUnits="userSpaceOnUse">
<stop stop-color="#DADAFF"/>
<stop offset="1" stop-color="#EEEEFF" stop-opacity="0"/>
</linearGradient>
<linearGradient id="paint8_linear_721_20418" x1="460.911" y1="353.67" x2="447.826" y2="344.829" gradientUnits="userSpaceOnUse">
<stop stop-color="#EEEEFF"/>
<stop offset="1" stop-color="#EEEEFF" stop-opacity="0"/>
</linearGradient>
<linearGradient id="paint9_linear_721_20418" x1="387.6" y1="523.84" x2="-198.873" y2="559.173" gradientUnits="userSpaceOnUse">
<stop stop-color="#DADAFF"/>
<stop offset="1" stop-color="#EEEEFF" stop-opacity="0"/>
</linearGradient>
<linearGradient id="paint10_linear_721_20418" x1="285.772" y1="526.604" x2="458.902" y2="506.363" gradientUnits="userSpaceOnUse">
<stop stop-color="#439DFE"/>
<stop offset="1" stop-color="#F687FF"/>
</linearGradient>
<linearGradient id="paint11_linear_721_20418" x1="684.851" y1="306.296" x2="497.456" y2="322.801" gradientUnits="userSpaceOnUse">
<stop stop-color="#DADAFF"/>
<stop offset="1" stop-color="#EEEEFF" stop-opacity="0"/>
</linearGradient>
</defs>
</svg>